<?xml version="1.0" standalone="no"?><!DOCTYPE svg PUBLIC "-//W3C//DTD SVG 1.1//EN" "http://www.w3.org/Graphics/SVG/1.1/DTD/svg11.dtd"><svg t="1772361684051" class="icon" viewBox="0 0 1024 1024" version="1.1" xmlns="http://www.w3.org/2000/svg" p-id="6468" xmlns:xlink="http://www.w3.org/1999/xlink" width="256" height="256"><path d="M836.821333 512a85.333333 85.333333 0 0 1 80.938667 112.341333l-66.645333 199.808A42.666667 42.666667 0 0 1 810.666667 853.333333H298.666667a42.666667 42.666667 0 1 1 0-85.333333h139.946666l61.013334-183.082667A106.666667 106.666667 0 0 1 600.746667 512zM384 512q28.928 0.042667 54.741333 3.669333a192 192 0 0 0-20.096 42.24l-36.693333 110.165334a21.333333 21.333333 0 0 1-20.266667 14.592H298.666667a128 128 0 0 0-128 128H128a42.666667 42.666667 0 0 1-41.813333-51.029334c11.605333-58.112 35.626667-120.405333 83.626666-168.448C218.88 542.08 289.024 512 384 512m0-384a170.666667 170.666667 0 1 1 0 341.333333 170.666667 170.666667 0 0 1 0-341.333333m426.666667 0a42.666667 42.666667 0 0 1 40.362666 28.885333l8.234667 23.936a42.666667 42.666667 0 0 0 26.581333 26.581334l23.936 8.234666a42.666667 42.666667 0 0 1 0 80.725334l-23.936 8.234666a42.666667 42.666667 0 0 0-26.581333 26.581334l-8.234667 23.936a42.666667 42.666667 0 0 1-80.725333 0l-8.192-23.936a42.666667 42.666667 0 0 0-26.624-26.581334l-23.936-8.234666a42.666667 42.666667 0 0 1 0-80.725334l23.936-8.234666a42.666667 42.666667 0 0 0 26.624-26.581334l8.192-23.936C777.472 140.16 791.552 128 810.666667 128" fill="#F6821F" p-id="6469"></path></svg>